<?xml version="1.0" encoding="utf-8" ?>
<svg baseProfile="full" height="100%" version="1.1" viewBox="0,0,316.1649536132812,174" width="100%" xmlns="http://www.w3.org/2000/svg" xmlns:ev="http://www.w3.org/2001/xml-events" xmlns:xlink="http://www.w3.org/1999/xlink"><defs /><rect fill="white" height="174" width="316.1649536132812" x="0" y="0" /><path d="M0,0 M33.53570556640625,21.75 L33.50593566894531,22.13036346435547 L33.48914337158203,22.933940887451172 L33.46875,24.179323196411133 L33.46316146850586,25.803089141845703 L33.430885314941406,27.72551155090332 L33.31938934326172,29.88578987121582 L33.08633041381836,32.180076599121094 L32.82298278808594,34.47748947143555 L32.58397674560547,36.61125564575195 L32.46295928955078,38.43241500854492 L32.451416015625,39.70249938964844 L32.495811462402344,40.40216064453125 M28.279800415039062,30.489599227905273 L28.46824836730957,30.564105987548828 L29.02297019958496,30.730321884155273 L30.10098648071289,30.9477596282959 L31.677997589111328,31.136568069458008 L33.58077621459961,31.209184646606445 L35.70825958251953,31.19975471496582 L37.516082763671875,31.15616798400879 L38.72001647949219,31.11789321899414 M40.086402893066406,36.098697662353516 L40.19035339355469,36.08300018310547 L40.57748794555664,35.90780258178711 L41.30389404296875,35.490379333496094 L42.358558654785156,34.80030822753906 L43.5916633605957,33.886783599853516 L44.83957290649414,32.838802337646484 L45.963687896728516,31.772254943847656 L46.83964920043945,30.74189567565918 L47.333465576171875,29.83413314819336 L47.37149429321289,29.108535766601562 L46.90076446533203,28.606664657592773 L45.95430374145508,28.46793556213379 L44.62879943847656,28.772113800048828 L43.06093215942383,29.521804809570312 L41.54045104980469,30.716638565063477 L40.313812255859375,32.24746322631836 L39.551048278808594,33.954307556152344 L39.41794204711914,35.69252014160156 L39.96514892578125,37.298545837402344 L41.09858322143555,38.55379104614258 L42.76056671142578,39.329566955566406 L45.00336456298828,39.4471549987793 L47.12248229980469,39.16393280029297 L48.675472259521484,38.74524688720703 M56.27532196044922,30.23845672607422 L55.881439208984375,29.874256134033203 L55.17618179321289,29.482213973999023 L54.17522048950195,29.23563003540039 L53.03619384765625,29.34564208984375 L51.86624526977539,29.762359619140625 L50.89585876464844,30.45263671875 L50.30876541137695,31.320417404174805 L50.2545051574707,32.347774505615234 L50.74391174316406,33.411376953125 L51.734619140625,34.479976654052734 L53.050113677978516,35.52539825439453 L54.4583854675293,36.50151062011719 L55.690452575683594,37.409812927246094 L56.54728317260742,38.248695373535156 L56.820465087890625,38.920536041259766 L56.5218391418457,39.45584487915039 L55.68637466430664,39.843475341796875 L54.44413757324219,40.05987548828125 L52.986202239990234,40.135250091552734 L51.56834030151367,40.07787322998047 L50.379417419433594,39.87476348876953 L49.781829833984375,39.410247802734375 L49.67462158203125,38.87276840209961 L49.84864807128906,38.40404510498047 M62.045738220214844,23.0609130859375 L62.08208084106445,23.078941345214844 L62.104434967041016,23.354412078857422 L62.091739654541016,24.05476951599121 L61.995574951171875,25.272825241088867 L61.8636360168457,26.96404266357422 L61.699195861816406,28.936412811279297 L61.57857131958008,31.044151306152344 L61.51143264770508,33.14558029174805 L61.52003479003906,35.098384857177734 L61.5952262878418,36.80789566040039 L61.71240234375,38.047672271728516 L61.78681564331055,38.73945617675781 M57.73833465576172,31.882835388183594 L57.9260368347168,31.78089141845703 L58.47495651245117,31.60809898376465 L59.5247802734375,31.409154891967773 L61.03353500366211,31.189424514770508 L62.87596893310547,30.961137771606445 L64.85087585449219,30.792625427246094 L66.77017211914062,30.699352264404297 L68.45413208007812,30.699520111083984 L69.76165771484375,30.825164794921875 L70.62033081054688,31.083955764770508 L71.0777816772461,31.57143783569336 L71.18799591064453,32.38071823120117 L71.02999877929688,33.50645446777344 L70.72268676757812,34.90267562866211 L70.33992004394531,36.41346740722656 L70.019287109375,37.85406494140625 L69.87657165527344,39.05892562866211 L69.96176147460938,39.819393157958984 L70.16454315185547,40.15116500854492 L70.38162231445312,40.19225311279297 M70.14552307128906,24.864501953125 L70.19175720214844,24.662342071533203 L70.38066101074219,24.54785919189453 L70.64031982421875,24.542797088623047 L70.89788818359375,24.660118103027344 M75.67011260986328,30.04402732849121 L75.73190307617188,30.07308006286621 L75.80624389648438,30.30847930908203 L75.85671997070312,30.85928726196289 L75.85585021972656,31.81117820739746 L75.77433013916016,33.08368682861328 L75.64954376220703,34.54487609863281 L75.54562377929688,35.97651290893555 L75.53101348876953,37.20940399169922 L75.66850280761719,38.07697296142578 L75.9660415649414,38.52231979370117 L76.36407470703125,38.4273681640625 L76.87787628173828,37.78499984741211 L77.48963928222656,36.59165954589844 L78.23825073242188,34.98441696166992 L79.1378402709961,33.22346878051758 L80.10429382324219,31.579782485961914 L81.1113510131836,30.2442684173584 L82.09949493408203,29.30776023864746 L82.99797058105469,28.79241943359375 L83.83412170410156,28.760929107666016 L84.56072998046875,29.234678268432617 L85.10186004638672,30.200979232788086 L85.44760131835938,31.603931427001953 L85.56780242919922,33.27801513671875 L85.50727844238281,35.021759033203125 L85.47691345214844,36.70417022705078 L85.50955963134766,37.980140686035156 L85.60450744628906,38.745487213134766 M96.05428314208984,32.196441650390625 L96.0047836303711,31.721481323242188 L95.832763671875,31.075998306274414 L95.44859313964844,30.435251235961914 L94.77239990234375,30.049392700195312 L93.751220703125,29.96001434326172 L92.46365356445312,30.270305633544922 L91.05863189697266,31.031742095947266 L89.75297546386719,32.161956787109375 L88.80541229248047,33.51890182495117 L88.38246154785156,34.84954071044922 L88.54597473144531,35.97063446044922 L89.22283935546875,36.73711013793945 L90.2808609008789,37.02347183227539 L91.56720733642578,36.81402587890625 L92.97111511230469,36.12594223022461 L94.36292266845703,35.06647872924805 L95.62757873535156,33.83906555175781 L96.62001037597656,32.62199401855469 L97.26383972167969,31.604938507080078 L97.58397674560547,30.91870880126953 L97.68268585205078,30.547489166259766 L97.64014434814453,30.584877014160156 L97.56661224365234,31.073589324951172 L97.516357421875,32.038936614990234 L97.52947998046875,33.494117736816406 L97.62109375,35.331790924072266 L97.8028335571289,37.375526428222656 L98.02825927734375,39.55341720581055 L98.25079345703125,41.7457389831543 L98.38407135009766,43.84748840332031 L98.3311996459961,45.73009490966797 L98.00833892822266,47.27610778808594 L97.38453674316406,48.41262435913086 L96.49752044677734,49.124229431152344 L95.42584228515625,49.405609130859375 L94.2909927368164,49.308170318603516 L93.20620727539062,48.839454650878906 L92.30900573730469,47.95958709716797 L91.70469665527344,47.04468536376953 L91.39707946777344,46.34734344482422 M114.64363098144531,23.80074691772461 L114.67707824707031,23.79806137084961 L114.77095794677734,24.013206481933594 L114.88092803955078,24.594173431396484 L114.97091674804688,25.617774963378906 L115.00223541259766,27.06517219543457 L114.99618530273438,28.82428550720215 L114.9602279663086,30.76087760925293 L114.95838165283203,32.76616287231445 L114.9891586303711,34.692108154296875 L115.09107208251953,36.374271392822266 L115.21065521240234,37.577232360839844 L115.32264709472656,38.25103759765625 M110.07210540771484,31.266366958618164 L110.31461334228516,31.2639217376709 L110.93541717529297,31.25383758544922 L112.06348419189453,31.246944427490234 L113.6292953491211,31.228137969970703 L115.51102447509766,31.188697814941406 L117.62059783935547,31.136154174804688 L119.41802978515625,31.09259033203125 L120.62825012207031,31.050067901611328 M122.7900390625,34.7274169921875 L123.15373229980469,34.77450180053711 L123.85016632080078,34.6988639831543 L124.88648986816406,34.41789245605469 L126.11134338378906,33.83708953857422 L127.3846664428711,33.0122184753418 L128.5622100830078,32.04418182373047 L129.48406982421875,30.99955177307129 L130.08575439453125,29.97681999206543 L130.33131408691406,29.083805084228516 L130.18299865722656,28.374340057373047 L129.61781311035156,27.955198287963867 L128.6370849609375,27.950565338134766 L127.30379486083984,28.396469116210938 L125.82485961914062,29.314483642578125 L124.46131134033203,30.618816375732422 L123.45458221435547,32.165489196777344 L122.9654769897461,33.78435134887695 L123.05353546142578,35.33696746826172 L123.73745727539062,36.677425384521484 L124.99809265136719,37.69611740112305 L126.72052764892578,38.279937744140625 L128.94960021972656,38.27827835083008 L131.0322265625,37.93437957763672 L132.5223388671875,37.50294494628906 M139.5800018310547,29.298994064331055 L139.11993408203125,28.99274444580078 L138.29220581054688,28.702070236206055 L137.14010620117188,28.568878173828125 L135.86447143554688,28.762853622436523 L134.66744995117188,29.215471267700195 L133.77810668945312,29.85569190979004 L133.38516235351562,30.624263763427734 L133.61183166503906,31.49458122253418 L134.41888427734375,32.40558624267578 L135.68316650390625,33.320899963378906 L137.23007202148438,34.22345733642578 L138.72125244140625,35.08210754394531 L139.93434143066406,35.89129638671875 L140.7099609375,36.63249969482422 L140.91232299804688,37.28128433227539 L140.52496337890625,37.80742645263672 L139.5972900390625,38.194793701171875 L138.22975158691406,38.4397087097168 L136.6087646484375,38.523155212402344 L135.03224182128906,38.44517135620117 L133.70639038085938,38.20975112915039 L132.9278564453125,37.70656967163086 L132.6372528076172,37.15007781982422 L132.67477416992188,36.69314956665039 M146.9878692626953,22.047115325927734 L147.03961181640625,22.138446807861328 L147.10122680664062,22.523284912109375 L147.14903259277344,23.314800262451172 L147.1599884033203,24.57764434814453 L147.08106994628906,26.216358184814453 L146.94520568847656,28.1358642578125 L146.7830352783203,30.237098693847656 L146.655029296875,32.407283782958984 L146.60202026367188,34.46482467651367 L146.6688995361328,36.28091812133789 L146.85064697265625,37.69110870361328 L147.09730529785156,38.60991668701172 L147.34091186523438,38.94425582885742 L147.5388641357422,38.52851486206055 L147.64772033691406,37.76110076904297 L147.6902618408203,37.021671295166016 M143.34547424316406,30.964258193969727 L143.5607452392578,30.89134979248047 L144.174072265625,30.817821502685547 L145.27435302734375,30.746774673461914 L146.84548950195312,30.702293395996094 L148.69058227539062,30.640233993530273 L150.6387176513672,30.519699096679688 L152.54293823242188,30.3410587310791 L154.27267456054688,30.141952514648438 L155.6339569091797,29.952884674072266 L156.56846618652344,29.830490112304688 L157.0790557861328,29.84659194946289 L157.25082397460938,30.121183395385742 L157.14195251464844,30.741365432739258 L156.8674774169922,31.732223510742188 L156.44418334960938,33.02983093261719 L155.9856719970703,34.458377838134766 L155.64764404296875,35.8237190246582 L155.5167694091797,36.94643020629883 L155.56564331054688,37.722354888916016 L155.75323486328125,38.09536361694336 L156.01779174804688,37.86269760131836 L156.25184631347656,37.33076477050781 L156.42422485351562,36.782196044921875 M156.0681915283203,24.493877410888672 L156.16183471679688,24.316497802734375 L156.4109649658203,24.230865478515625 L156.71908569335938,24.248254776000977 L156.99217224121094,24.377317428588867 M162.04910278320312,28.704309463500977 L162.08297729492188,29.039819717407227 L162.0924530029297,29.755529403686523 L162.07003784179688,30.84664535522461 L162.01864624023438,32.196998596191406 L161.93014526367188,33.65304183959961 L161.84439086914062,35.08108901977539 L161.83071899414062,36.31996536254883 L161.87252807617188,37.24053192138672 L161.9758758544922,37.759132385253906 L162.15631103515625,37.825462341308594 L162.41946411132812,37.38762664794922 L162.8111572265625,36.45227813720703 L163.3719482421875,35.10636901855469 L164.09962463378906,33.529109954833984 L164.96951293945312,31.957218170166016 L165.9676971435547,30.550878524780273 L167.05960083007812,29.421220779418945 L168.23580932617188,28.67182731628418 L169.336669921875,28.33246612548828 L170.3739013671875,28.476078033447266 L171.2541961669922,29.08031463623047 L171.939697265625,30.137123107910156 L172.40370178222656,31.537418365478516 L172.67807006835938,33.166290283203125 L172.74081420898438,34.81418228149414 L172.841796875,36.359256744384766 L172.95883178710938,37.503517150878906 L173.09622192382812,38.19913101196289 M183.101318359375,31.35064697265625 L183.01242065429688,30.88239097595215 L182.74136352539062,30.292781829833984 L182.2284698486328,29.7828369140625 L181.4456787109375,29.606109619140625 L180.42164611816406,29.771228790283203 L179.2660675048828,30.301633834838867 L178.12771606445312,31.140403747558594 L177.20339965820312,32.164005279541016 L176.68972778320312,33.23643493652344 L176.70458984375,34.19026565551758 L177.2433319091797,34.89703369140625 L178.2455596923828,35.257713317871094 L179.57936096191406,35.18927001953125 L181.08470153808594,34.72109603881836 L182.58729553222656,33.916900634765625 L183.90460205078125,32.896324157714844 L184.88548278808594,31.823627471923828 L185.49916076660156,30.87259292602539 L185.7714080810547,30.13313865661621 L185.78468322753906,29.67667007446289 L185.6459197998047,29.529321670532227 L185.4343719482422,29.750560760498047 L185.2197265625,30.411216735839844 L185.06092834472656,31.52071762084961 L185.03968811035156,33.04533004760742 L185.1913604736328,34.90082931518555 L185.51840209960938,36.98567199707031 L185.93922424316406,39.18878173828125 L186.37045288085938,41.45774459838867 L186.63592529296875,43.63319396972656 L186.68228149414062,45.62441635131836 L186.40792846679688,47.3514289855957 L185.8108367919922,48.74700164794922 L184.85281372070312,49.762508392333984 L183.64398193359375,50.45069122314453 L182.23951721191406,50.78569030761719 L180.78953552246094,50.799598693847656 L179.36431884765625,50.51536560058594 L178.0971221923828,49.995052337646484 L176.9837188720703,49.271785736083984 L176.11436462402344,48.41510009765625 L175.54449462890625,47.408416748046875 L175.25636291503906,46.52895736694336 L175.1676483154297,45.92052459716797 M203.7875213623047,23.69390296936035 L203.80520629882812,23.952892303466797 L203.83445739746094,24.599536895751953 L203.86476135253906,25.661142349243164 L203.87583923339844,27.092384338378906 L203.82452392578125,28.773414611816406 L203.73094177246094,30.611156463623047 L203.62612915039062,32.530784606933594 L203.5802764892578,34.41039276123047 L203.61532592773438,36.050498962402344 L203.7293701171875,37.298736572265625 L203.8563995361328,38.06025314331055 L203.94760131835938,38.39214324951172 M198.0362091064453,29.788013458251953 L198.18753051757812,29.87918472290039 L198.63833618164062,30.01403045654297 L199.53016662597656,30.147035598754883 L200.91868591308594,30.22783088684082 L202.68963623046875,30.204843521118164 L204.7006072998047,30.055688858032227 L206.77340698242188,29.796707153320312 L208.73768615722656,29.444286346435547 L210.48220825195312,29.02280616760254 L211.91021728515625,28.567184448242188 L212.87313842773438,28.17115592956543 L213.39552307128906,27.90634536743164 M212.8229217529297,31.859830856323242 L213.1510009765625,32.11569595336914 L213.80308532714844,32.363346099853516 L214.82199096679688,32.47376251220703 L216.09286499023438,32.299259185791016 L217.54196166992188,31.888269424438477 L219.00856018066406,31.25860023498535 L220.3932342529297,30.508827209472656 L221.56234741210938,29.668916702270508 L222.4141082763672,28.8062801361084 L222.78648376464844,27.97995948791504 L222.6118927001953,27.265056610107422 L221.83982849121094,26.756107330322266 L220.5335693359375,26.582582473754883 L218.86404418945312,26.833904266357422 L217.071044921875,27.52498435974121 L215.39501953125,28.61345100402832 L214.060791015625,29.992246627807617 L213.26309204101562,31.572370529174805 L213.08712768554688,33.206050872802734 L213.58953857421875,34.772071838378906 L214.7498779296875,36.0753288269043 L216.7467498779297,36.96723175048828 L218.8231964111328,37.43405532836914 L220.44920349121094,37.584266662597656 M231.63380432128906,28.598480224609375 L231.30581665039062,28.195213317871094 L230.70640563964844,27.74929428100586 L229.80868530273438,27.447185516357422 L228.71731567382812,27.528900146484375 L227.48890686035156,27.910385131835938 L226.355224609375,28.558570861816406 L225.56019592285156,29.374597549438477 L225.33123779296875,30.28352928161621 L225.77484130859375,31.209796905517578 L226.86990356445312,32.13580322265625 L228.42967224121094,33.03003692626953 L230.16595458984375,33.89278030395508 L231.77838134765625,34.71682357788086 L233.01885986328125,35.47451400756836 L233.73204040527344,36.14886474609375 L233.8278045654297,36.72420120239258 L233.29525756835938,37.17448425292969 L232.13726806640625,37.52165222167969 L230.53623962402344,37.75993728637695 L228.72366333007812,37.86896514892578 L226.9487762451172,37.815032958984375 L225.4853057861328,37.4766960144043 L224.52809143066406,37.0311279296875 L224.04067993164062,36.6387939453125 M237.33334350585938,21.907459259033203 L237.5387420654297,21.885517120361328 L237.79214477539062,22.085159301757812 L238.03976440429688,22.66515350341797 L238.16238403320312,23.712589263916016 L238.15484619140625,25.19011878967285 L238.0445098876953,26.950090408325195 L237.92250061035156,28.906169891357422 L237.83673095703125,30.927947998046875 L237.85653686523438,32.86199951171875 L237.96334838867188,34.60340881347656 L238.09303283691406,35.89136505126953 L238.1881561279297,36.62784957885742 M233.73170471191406,30.173173904418945 L233.89251708984375,29.957748413085938 L234.40309143066406,29.645282745361328 L235.39524841308594,29.31365203857422 L236.8533172607422,29.06822967529297 L238.61282348632812,28.90053367614746 L240.51646423339844,28.84962272644043 L242.3924560546875,28.87656021118164 L243.99862670898438,28.938358306884766 L245.30160522460938,29.052900314331055 L246.2690887451172,29.229713439941406 L246.87771606445312,29.504484176635742 L247.2161102294922,29.972259521484375 L247.32394409179688,30.70087432861328 L247.2013702392578,31.637088775634766 L247.0054168701172,32.76604080200195 L246.81277465820312,33.97530746459961 L246.69580078125,35.122493743896484 L246.7149658203125,36.05893325805664 L246.8066864013672,36.68194580078125 L246.91079711914062,36.96300506591797 M246.0214080810547,23.48019790649414 L246.0399627685547,23.429611206054688 L246.23458862304688,23.507320404052734 L246.52244567871094,23.666484832763672 L246.8206787109375,23.859180450439453 M252.85121154785156,27.30034637451172 L252.86154174804688,27.63409423828125 L252.8680419921875,28.348575592041016 L252.83474731445312,29.437925338745117 L252.77088928222656,30.79199981689453 L252.66287231445312,32.229949951171875 L252.57974243164062,33.64507293701172 L252.6051025390625,34.86765670776367 L252.76756286621094,35.80900955200195 L253.01535034179688,36.3516845703125 L253.3856964111328,36.4420166015625 L253.8819580078125,36.04214096069336 L254.53944396972656,35.202186584472656 L255.35574340820312,33.97676467895508 L256.29742431640625,32.564125061035156 L257.30029296875,31.140195846557617 L258.33074951171875,29.841739654541016 L259.383056640625,28.794708251953125 L260.40167236328125,28.08736801147461 L261.2862548828125,27.730777740478516 L261.9775390625,27.78104591369629 L262.50128173828125,28.27714729309082 L262.79913330078125,29.196744918823242 L262.948974609375,30.482574462890625 L262.95458984375,31.99227523803711 L262.87774658203125,33.53678894042969 L262.84503173828125,35.00033950805664 L262.8983154296875,36.1258544921875 L262.9821472167969,36.81736755371094 M272.0505065917969,31.188011169433594 L272.0441589355469,30.7076358795166 L271.9071960449219,30.058122634887695 L271.4891357421875,29.409923553466797 L270.73675537109375,29.022953033447266 L269.6551818847656,28.92542266845703 L268.3261413574219,29.153396606445312 L266.9682312011719,29.739042282104492 L265.79656982421875,30.59283447265625 L265.022216796875,31.596431732177734 L264.820556640625,32.607337951660156 L265.2264099121094,33.476905822753906 L266.2120361328125,34.07892608642578 L267.65057373046875,34.35404968261719 L269.3319396972656,34.24894332885742 L271.04638671875,33.78898239135742 L272.5698547363281,33.05910110473633 L273.7402648925781,32.174076080322266 L274.49896240234375,31.256017684936523 L274.8541564941406,30.459657669067383 L274.9429626464844,29.89186668395996 L274.89251708984375,29.55182456970215 L274.7564697265625,29.53310203552246 L274.60919189453125,29.900978088378906 L274.498046875,30.704097747802734 L274.446533203125,31.976499557495117 L274.4943542480469,33.71009063720703 L274.6771240234375,35.7578125 L274.8736572265625,38.040283203125 L275.0205993652344,40.45652770996094 L274.986083984375,42.881561279296875 L274.65460205078125,45.168697357177734 L273.9835205078125,47.23855972290039 L272.978759765625,48.95842361450195 L271.6435546875,50.248695373535156 L270.0480041503906,51.09101486206055 L268.2848205566406,51.47064208984375 L266.48114013671875,51.3966064453125 L264.78570556640625,50.899620056152344 L263.28564453125,50.03683090209961 L262.09930419921875,48.88472366333008 L261.3650207519531,47.551910400390625 L261.26641845703125,45.99077224731445 L261.56689453125,44.61210250854492 L261.98919677734375,43.630516052246094 " fill="none" stroke="black" stroke-linecap="round" stroke-width="1.0" /><path d="M0,0 M27.190052032470703,51.51716995239258 L27.213682174682617,51.75603485107422 L27.252723693847656,52.34638977050781 L27.292011260986328,53.34154510498047 L27.3325138092041,54.702430725097656 L27.34990882873535,56.32143020629883 L27.313255310058594,58.03670120239258 L27.26512336730957,59.70115661621094 L27.234195709228516,61.09028244018555 L27.237743377685547,62.028594970703125 L27.304208755493164,62.48482894897461 L27.394990921020508,62.35698699951172 L27.537473678588867,61.66569900512695 L27.749937057495117,60.42750549316406 L28.095901489257812,58.759056091308594 L28.620182037353516,56.87805938720703 L29.307506561279297,55.055912017822266 L30.13829803466797,53.411376953125 L31.10882568359375,52.09248352050781 L32.153377532958984,51.18434143066406 L33.22924041748047,50.81284713745117 L34.261016845703125,51.006507873535156 L35.15829849243164,51.76639175415039 L35.89438247680664,53.036075592041016 L36.40996170043945,54.679168701171875 L36.70487976074219,56.52499771118164 L36.786865234375,58.36513900756836 L36.723052978515625,59.90952682495117 L36.60520935058594,60.9729118347168 L36.524784088134766,61.55221176147461 L36.542415618896484,61.54878616333008 L36.68354415893555,60.926963806152344 L36.975189208984375,59.77113342285156 L37.494388580322266,58.19395446777344 L38.298553466796875,56.38031768798828 L39.37435531616211,54.659942626953125 L40.63142013549805,53.16971206665039 L41.955665588378906,52.06515121459961 L43.202667236328125,51.45170974731445 L44.29882049560547,51.42856216430664 L45.21308517456055,51.988521575927734 L45.88848114013672,53.09147262573242 L46.275150299072266,54.61798095703125 L46.41230392456055,56.439449310302734 L46.33626937866211,58.3171501159668 L46.19295120239258,60.04909896850586 L46.155517578125,61.40463638305664 L46.22169876098633,62.254940032958984 L46.342655181884766,62.6439323425293 M56.534637451171875,54.3624267578125 L56.437686920166016,53.89608383178711 L56.16624069213867,53.282440185546875 L55.67436218261719,52.70240020751953 L54.916419982910156,52.42334747314453 L53.88606262207031,52.46932601928711 L52.65989303588867,52.933101654052734 L51.369140625,53.81751251220703 L50.21695327758789,55.09039306640625 L49.388248443603516,56.60466384887695 L49.04330825805664,58.227046966552734 L49.22955322265625,59.7396125793457 L49.93631362915039,60.99137496948242 L51.0722770690918,61.785831451416016 L52.5588264465332,62.03285217285156 L54.18172836303711,61.657020568847656 L55.79960632324219,60.75401306152344 L57.211181640625,59.42778015136719 L58.2542610168457,57.88193130493164 L58.86091232299805,56.305973052978516 L59.001976013183594,54.851959228515625 L58.71827697753906,53.638912200927734 L58.099552154541016,52.77239227294922 L57.44841384887695,52.27377700805664 L56.957035064697266,52.065162658691406 M63.5430908203125,53.511844635009766 L63.44983673095703,53.88726806640625 L63.28599166870117,54.671077728271484 L63.05150604248047,55.86056137084961 L62.823177337646484,57.34011459350586 L62.588993072509766,58.8902702331543 L62.4250602722168,60.36725997924805 L62.33315658569336,61.57476043701172 L62.32244110107422,62.401554107666016 L62.357913970947266,62.77737808227539 L62.428680419921875,62.625240325927734 L62.50502014160156,61.90928649902344 L62.60400390625,60.68077850341797 L62.78075408935547,59.05567169189453 L63.033592224121094,57.26054000854492 L63.4212760925293,55.54910659790039 L63.95212936401367,54.037818908691406 L64.64048767089844,52.80548858642578 L65.56759643554688,51.922645568847656 L66.72611999511719,51.39507293701172 L68.05647277832031,51.24399948120117 L69.50650024414062,51.43479537963867 L70.98062896728516,51.970890045166016 L72.1562271118164,52.56808853149414 L72.92095184326172,53.04525375366211 M72.80036926269531,58.94340133666992 L73.23535919189453,58.91251754760742 L74.09339904785156,58.69614791870117 L75.32460021972656,58.216529846191406 L76.7592544555664,57.46414566040039 L78.20557403564453,56.52036666870117 L79.48345184326172,55.44795227050781 L80.44275665283203,54.378509521484375 L81.01594543457031,53.385047912597656 L81.0916748046875,52.537818908691406 L80.6880874633789,51.950923919677734 L79.80026245117188,51.750911712646484 L78.50587463378906,52.01784896850586 L76.94508361816406,52.79588317871094 L75.39041137695312,54.08400344848633 L74.11734008789062,55.70724105834961 L73.4014663696289,57.5299186706543 L73.35563659667969,59.37527847290039 L74.05043029785156,61.051021575927734 L75.46949768066406,62.388607025146484 L77.5123062133789,63.31367492675781 L79.98540496826172,63.72101593017578 L82.83882141113281,63.575828552246094 L85.31170654296875,63.14962387084961 L86.98785400390625,62.693721771240234 M95.4549560546875,52.919559478759766 L95.4751968383789,53.54143524169922 L95.48509216308594,54.6582145690918 L95.49107360839844,56.178627014160156 L95.49639129638672,57.86906051635742 L95.5301513671875,59.553470611572266 L95.59745025634766,61.04396057128906 L95.71241760253906,62.15481948852539 L95.83641815185547,62.820308685302734 L95.97180938720703,62.88880920410156 L96.16163635253906,62.33718490600586 L96.46134948730469,61.20159149169922 L96.88729858398438,59.61776351928711 L97.45327758789062,57.74827194213867 L98.14328002929688,55.843631744384766 L98.96730041503906,54.060279846191406 L99.88951873779297,52.553592681884766 L100.84912872314453,51.448097229003906 L101.77855682373047,50.831783294677734 L102.62394714355469,50.75 L103.36637115478516,51.240482330322266 L103.97350311279297,52.30445098876953 L104.35079193115234,53.8466796875 L104.48815155029297,55.72919845581055 L104.4379653930664,57.6724853515625 L104.28993225097656,59.41374969482422 L104.1524658203125,60.69282913208008 L104.09181213378906,61.46377182006836 L104.11334991455078,61.61292266845703 L104.28443145751953,61.162811279296875 L104.63085174560547,60.161048889160156 L105.21204376220703,58.75209045410156 L105.99897003173828,57.04372787475586 L106.9791259765625,55.35129928588867 L108.08650970458984,53.809444427490234 L109.27224731445312,52.57723617553711 L110.44857788085938,51.77364730834961 L111.55109405517578,51.48843765258789 L112.47437286376953,51.74666213989258 L113.18571472167969,52.58027267456055 L113.6562728881836,53.91618347167969 L113.8788833618164,55.634117126464844 L113.90885162353516,57.546600341796875 L113.83604431152344,59.417030334472656 L113.76827239990234,61.04485321044922 L113.83010864257812,62.25678253173828 L114.18781280517578,62.79793167114258 L114.66324615478516,62.839332580566406 L115.10405731201172,62.626564025878906 M123.015380859375,54.14401626586914 L122.80078887939453,53.75555419921875 L122.39436340332031,53.22941207885742 L121.76921081542969,52.73073196411133 L120.95014953613281,52.51742172241211 L119.91770935058594,52.674583435058594 L118.76995086669922,53.28170394897461 L117.62520599365234,54.350555419921875 L116.6625747680664,55.77863311767578 L116.06626892089844,57.42156982421875 L115.92356872558594,59.06477355957031 L116.28155517578125,60.494964599609375 L117.11331176757812,61.530033111572266 L118.3326416015625,62.05894470214844 L119.76695251464844,61.99028015136719 L121.28514862060547,61.382118225097656 L122.67424774169922,60.316200256347656 L123.78582763671875,58.948028564453125 L124.47957611083984,57.3872184753418 L124.75611877441406,55.842857360839844 L124.63481140136719,54.43168258666992 L124.2012710571289,53.265079498291016 L123.59600830078125,52.4500617980957 L123.03926849365234,52.005859375 L122.64705657958984,51.81796646118164 M128.7418975830078,53.372520446777344 L128.74720764160156,53.712215423583984 L128.74652099609375,54.48823547363281 L128.70143127441406,55.70608901977539 L128.62274169921875,57.25984573364258 L128.50404357910156,58.90935516357422 L128.40138244628906,60.46620559692383 L128.3624267578125,61.71485900878906 L128.3836669921875,62.54795837402344 L128.42764282226562,62.93364334106445 L128.43487548828125,62.7980842590332 L128.37144470214844,62.08949279785156 L128.2628936767578,60.872013092041016 L128.17239379882812,59.24607467651367 L128.13368225097656,57.45381164550781 L128.20962524414062,55.78496170043945 L128.42086791992188,54.334232330322266 L128.79005432128906,53.14017868041992 L129.37062072753906,52.26447677612305 L130.20956420898438,51.71214294433594 L131.26332092285156,51.49354553222656 L132.50942993164062,51.592247009277344 L133.95852661132812,51.995147705078125 L135.2295379638672,52.45009231567383 L136.11375427246094,52.81079864501953 M136.9947509765625,58.59593963623047 L137.4112091064453,58.6314697265625 L138.16732788085938,58.5302734375 L139.23960876464844,58.20397186279297 L140.4402618408203,57.58845520019531 L141.60110473632812,56.76475143432617 L142.59165954589844,55.80105209350586 L143.28485107421875,54.80229568481445 L143.60092163085938,53.86568069458008 L143.53672790527344,53.082908630371094 L143.07752990722656,52.51118087768555 L142.2607421875,52.26109313964844 L141.14756774902344,52.411869049072266 L139.82176208496094,53.016357421875 L138.4750213623047,54.08428955078125 L137.34202575683594,55.518001556396484 L136.62464904785156,57.14800262451172 L136.4479522705078,58.81474685668945 L136.91307067871094,60.360572814941406 L137.99903869628906,61.65983581542969 L139.6764678955078,62.60620880126953 L141.8195037841797,63.1227912902832 L144.4423370361328,63.11207962036133 L146.79847717285156,62.80778121948242 L148.46226501464844,62.44652557373047 M158.05316162109375,52.48451232910156 L158.0447998046875,52.98709487915039 L158.0029754638672,53.9017333984375 L157.94630432128906,55.21678924560547 L157.84088134765625,56.75696563720703 L157.7433624267578,58.4296875 L157.6329345703125,60.08946228027344 L157.5697479248047,61.53963851928711 L157.5328369140625,62.57160949707031 L157.58274841308594,63.13522720336914 L157.67242431640625,63.11707305908203 L157.85177612304688,62.5410270690918 L158.11859130859375,61.45013427734375 L158.49134826660156,59.9288215637207 L158.97683715820312,58.141357421875 L159.62294006347656,56.35274124145508 L160.4333953857422,54.678466796875 L161.3414764404297,53.229591369628906 L162.34173583984375,52.084877014160156 L163.3498992919922,51.354698181152344 L164.3521270751953,51.100589752197266 L165.30885314941406,51.36699295043945 L166.18896484375,52.15678405761719 L166.84915161132812,53.40897750854492 L167.2574920654297,55.03608703613281 L167.3863525390625,56.90775680541992 L167.26116943359375,58.79254913330078 L166.99053955078125,60.46989440917969 L166.701904296875,61.71073532104492 L166.47984313964844,62.47002410888672 L166.41905212402344,62.66606140136719 L166.5401153564453,62.23632049560547 L166.84591674804688,61.24185562133789 L167.35394287109375,59.79892349243164 L168.0780029296875,58.07307434082031 L168.988037109375,56.350563049316406 L170.07081604003906,54.78263473510742 L171.20938110351562,53.46497344970703 L172.37384033203125,52.53736877441406 L173.48512268066406,52.09727478027344 L174.52012634277344,52.203609466552734 L175.396484375,52.85730743408203 L176.0602569580078,53.998207092285156 L176.42733764648438,55.547489166259766 L176.5277862548828,57.34016418457031 L176.41305541992188,59.17631530761719 L176.2577667236328,60.88002014160156 L176.14613342285156,62.1476936340332 L176.10952758789062,62.8730583190918 M186.60398864746094,55.67921447753906 L186.5028839111328,55.2100715637207 L186.22378540039062,54.56022644042969 L185.70816040039062,53.9139518737793 L184.89881896972656,53.49840545654297 L183.81939697265625,53.38691329956055 L182.55755615234375,53.64308166503906 L181.27203369140625,54.35552215576172 L180.10939025878906,55.48415756225586 L179.27297973632812,56.96901321411133 L178.85061645507812,58.61418533325195 L178.8933563232422,60.22258758544922 L179.4123077392578,61.57028579711914 L180.39161682128906,62.500152587890625 L181.67213439941406,62.877777099609375 L183.1607208251953,62.663230895996094 L184.7069091796875,61.884971618652344 L186.12916564941406,60.646949768066406 L187.2765350341797,59.11341857910156 L188.04281616210938,57.52893829345703 L188.33229064941406,56.071380615234375 L188.19918823242188,54.87169647216797 L187.75804138183594,54.02967071533203 L187.2705535888672,53.5548210144043 L186.90975952148438,53.35334777832031 M191.82688903808594,53.21021270751953 L191.85777282714844,53.39802169799805 L191.87220764160156,53.86089324951172 L191.86180114746094,54.6970329284668 L191.78341674804688,55.82139205932617 L191.66778564453125,57.16844940185547 L191.52688598632812,58.58111572265625 L191.38584899902344,59.924190521240234 L191.29806518554688,61.011592864990234 L191.2761688232422,61.785255432128906 L191.25840759277344,62.11323547363281 L191.25146484375,61.944374084472656 L191.22244262695312,61.26523971557617 L191.2451934814453,60.134490966796875 L191.36334228515625,58.636741638183594 L191.59991455078125,56.98706817626953 L191.94419860839844,55.34628677368164 L192.3926239013672,53.83986282348633 L192.99497985839844,52.577842712402344 L193.7517547607422,51.633399963378906 L194.67288208007812,51.04339599609375 L195.7473907470703,50.81226348876953 L196.9527587890625,50.91373062133789 L197.98680114746094,51.169761657714844 L198.70518493652344,51.42245864868164 M199.32911682128906,58.80906295776367 L199.7162628173828,58.666168212890625 L200.45416259765625,58.29734420776367 L201.53195190429688,57.69002151489258 L202.82998657226562,56.880348205566406 L204.14747619628906,55.936058044433594 L205.36166381835938,54.88386154174805 L206.33099365234375,53.84733581542969 L206.9414520263672,52.8610954284668 L207.10568237304688,52.01029586791992 L206.8199005126953,51.366031646728516 L206.05699157714844,51.02254104614258 L204.84324645996094,51.03493881225586 L203.30606079101562,51.50664520263672 L201.65940856933594,52.38351058959961 L200.1586456298828,53.587188720703125 L199.1071014404297,55.03549575805664 L198.68408203125,56.6320686340332 L198.96092224121094,58.22697448730469 L199.97842407226562,59.71608352661133 L201.71849060058594,60.967247009277344 L204.0011749267578,61.86228942871094 L206.84033203125,62.340843200683594 L209.40187072753906,62.48517608642578 L211.1844482421875,62.42647171020508 " fill="none" stroke="black" stroke-linecap="round" stroke-width="1.0" /><path d="M0,0 M32.79751205444336,79.8809814453125 L32.66112518310547,80.17996978759766 L32.45661926269531,80.84745788574219 L32.1925163269043,81.92644500732422 L31.959274291992188,83.4212417602539 L31.697162628173828,85.2264404296875 L31.42864227294922,87.2952880859375 L31.22018051147461,89.52134704589844 L31.107440948486328,91.71760559082031 L31.160018920898438,93.6753158569336 L31.42572021484375,95.23126983642578 L31.90444564819336,96.19874572753906 L32.615455627441406,96.53532409667969 L33.59587097167969,96.24540710449219 L34.81278991699219,95.3251953125 L36.17308807373047,93.92852020263672 L37.54975128173828,92.2670669555664 L38.80924987792969,90.58888244628906 L39.831764221191406,89.1222915649414 L40.56422424316406,88.10135650634766 L40.985992431640625,87.484375 L41.138710021972656,87.32656860351562 L41.11362838745117,87.6951904296875 L40.973995208740234,88.61690521240234 L40.74925231933594,90.0126953125 L40.46558380126953,91.75828552246094 L40.189979553222656,93.49594116210938 L40.02447509765625,94.93404388427734 L39.9786491394043,95.95174407958984 L40.08781814575195,96.41339111328125 L40.323856353759766,96.02642822265625 L40.56245040893555,95.23639678955078 L40.75565719604492,94.43134307861328 M41.80500793457031,81.63927459716797 L41.85688400268555,81.48017883300781 L41.93654251098633,81.33744049072266 L42.022064208984375,81.25013732910156 L42.087677001953125,81.2575454711914 L42.176944732666016,81.39918518066406 L42.37361145019531,81.69052124023438 L42.6075325012207,82.0186767578125 M46.4543342590332,86.40691375732422 L46.50978088378906,86.79745483398438 L46.57661437988281,87.53096008300781 L46.642574310302734,88.62406158447266 L46.658592224121094,89.97248840332031 L46.6042366027832,91.50787353515625 L46.55455017089844,93.1104965209961 L46.52007293701172,94.58891296386719 L46.513641357421875,95.72722625732422 L46.564571380615234,96.43489074707031 L46.661983489990234,96.66519927978516 L46.83613204956055,96.34258270263672 L47.11848831176758,95.47541046142578 L47.542179107666016,94.13794708251953 L48.1042594909668,92.45227813720703 L48.83903503417969,90.697509765625 L49.74927520751953,89.09663391113281 L50.768375396728516,87.7318344116211 L51.87430953979492,86.72791290283203 L52.959712982177734,86.18218994140625 L53.93210983276367,86.13770294189453 L54.75684356689453,86.6314697265625 L55.381805419921875,87.63082122802734 L55.760475158691406,89.0692367553711 L55.88307571411133,90.80225372314453 L55.78227615356445,92.65028381347656 L55.59937286376953,94.4371109008789 L55.44978713989258,95.79920196533203 L55.38254928588867,96.6050033569336 M59.939395904541016,93.08879089355469 L60.29969787597656,92.9549789428711 L60.97163772583008,92.59127044677734 L61.942359924316406,91.95567321777344 L63.05561447143555,91.04935455322266 L64.23454284667969,89.9905776977539 L65.29460144042969,88.83728790283203 L66.11185455322266,87.72203826904297 L66.56745147705078,86.75505065917969 L66.6361083984375,86.00628662109375 L66.23902130126953,85.55476379394531 L65.41553497314453,85.50901794433594 L64.24239349365234,85.92639923095703 L62.88398742675781,86.8294677734375 L61.526161193847656,88.17652893066406 L60.485469818115234,89.8099594116211 L59.89082717895508,91.55105590820312 L59.87273406982422,93.23037719726562 L60.47060775756836,94.69587707519531 L61.62477493286133,95.80521392822266 L63.20542526245117,96.4560546875 L65.10570526123047,96.62422943115234 L67.29349517822266,96.13713836669922 L69.21543884277344,95.38339233398438 L70.55183410644531,94.68255615234375 M75.50333404541016,86.78255462646484 L75.19215393066406,86.44561767578125 L74.5977783203125,86.08486938476562 L73.71326446533203,85.88963317871094 L72.64124298095703,86.0655746459961 L71.50968933105469,86.56877899169922 L70.5196762084961,87.38536834716797 L69.87865447998047,88.40792846679688 L69.773193359375,89.52252960205078 L70.23715209960938,90.63581848144531 L71.21504974365234,91.67027282714844 L72.5498046875,92.58895111083984 L74.0171127319336,93.40652465820312 L75.34953308105469,94.11740112304688 L76.33126831054688,94.71844482421875 L76.80797576904297,95.24210357666016 L76.71804809570312,95.68165588378906 L76.07538604736328,96.0318603515625 L74.9740982055664,96.31695556640625 L73.55101776123047,96.50959014892578 L72.00416564941406,96.59845733642578 L70.58477783203125,96.55410766601562 L69.55577087402344,96.44048309326172 L68.99105072021484,96.32801818847656 M91.6504135131836,80.83262634277344 L91.704833984375,80.85659790039062 L91.7435531616211,81.0606918334961 L91.73545837402344,81.586181640625 L91.59973907470703,82.5727767944336 L91.3064193725586,84.0714111328125 L90.88941192626953,85.9985580444336 L90.45574951171875,88.20389556884766 L90.10568237304688,90.50769805908203 L89.95468139648438,92.65875244140625 L90.02649688720703,94.47651672363281 L90.35989379882812,95.80062103271484 L90.93377685546875,96.5749740600586 L91.73674011230469,96.74694061279297 L92.78614807128906,96.31127166748047 L94.01399993896484,95.29412841796875 L95.37027740478516,93.85269927978516 L96.73094940185547,92.17247009277344 L97.96357727050781,90.48499298095703 L98.92156982421875,89.04704284667969 L99.55522918701172,88.01810455322266 L99.86560821533203,87.41242980957031 L99.93941497802734,87.34122467041016 L99.83108520507812,87.8096923828125 L99.60521697998047,88.77072143554688 L99.29644775390625,90.18331146240234 L98.98346710205078,91.85458374023438 L98.7485122680664,93.48938751220703 L98.66368865966797,94.92389678955078 L98.71846008300781,95.97915649414062 L98.91279602050781,96.44058227539062 L99.13607025146484,96.47064208984375 L99.31111907958984,96.2786636352539 M99.65087890625,81.5859146118164 L99.65189361572266,81.43636322021484 L99.73974609375,81.45376586914062 L99.88041687011719,81.60311126708984 L100.03581237792969,81.84593963623047 M104.7172622680664,87.36280822753906 L104.61375427246094,88.00215911865234 L104.47303009033203,89.1114273071289 L104.30899810791016,90.61075592041016 L104.1711654663086,92.21354675292969 L104.07552337646484,93.74176025390625 L104.06611633300781,94.99651336669922 L104.12255859375,95.89464569091797 L104.25996398925781,96.35957336425781 L104.47779083251953,96.33101654052734 L104.78933715820312,95.75984954833984 L105.23100280761719,94.68077850341797 L105.84939575195312,93.19441223144531 L106.6525650024414,91.5512466430664 L107.64508819580078,89.97728729248047 L108.76155090332031,88.626953125 L109.93921661376953,87.58199310302734 L111.07379150390625,86.92813873291016 L112.09613800048828,86.72908782958984 L112.96623229980469,87.04220581054688 L113.64684295654297,87.8865966796875 L114.0683822631836,89.18087768554688 L114.27629089355469,90.79219818115234 L114.32325744628906,92.55744171142578 L114.28831481933594,94.24551391601562 L114.32170104980469,95.673583984375 L114.50714111328125,96.66603088378906 L114.7528076171875,97.18583679199219 L114.98638153076172,97.3528060913086 M117.87443542480469,94.26376342773438 L118.30179595947266,93.8587875366211 L119.04649353027344,93.11493682861328 L120.02915954589844,92.06613159179688 L121.0362319946289,90.80260467529297 L121.96891021728516,89.4036865234375 L122.71826934814453,87.96538543701172 L123.2305679321289,86.6167984008789 L123.48168182373047,85.51048278808594 L123.4529800415039,84.76069641113281 L123.11100769042969,84.40130615234375 L122.47708892822266,84.52175903320312 L121.59172821044922,85.18211364746094 L120.57721710205078,86.3584213256836 L119.63130950927734,87.95761108398438 L118.9842300415039,89.77008056640625 L118.7583999633789,91.55555725097656 L119.02227783203125,93.14874267578125 L119.97156524658203,94.41423797607422 L121.1194839477539,95.23057556152344 L122.09370422363281,95.62997436523438 M133.07327270507812,86.55966186523438 L132.65408325195312,86.19731903076172 L131.9264678955078,85.79851531982422 L130.9439239501953,85.54924011230469 L129.90516662597656,85.6656723022461 L128.90570068359375,86.0634994506836 L128.1514892578125,86.73289489746094 L127.81287384033203,87.63644409179688 L127.97554016113281,88.6650390625 L128.6517791748047,89.75362396240234 L129.7725830078125,90.8189697265625 L131.1490020751953,91.79962921142578 L132.6417694091797,92.69309997558594 L134.00469970703125,93.51359558105469 L135.00596618652344,94.19949340820312 L135.51913452148438,94.7667465209961 L135.44155883789062,95.20581817626953 L134.76626586914062,95.51268768310547 L133.5807342529297,95.67916870117188 L131.97093200683594,95.72947692871094 L130.1312255859375,95.65892791748047 L128.3255157470703,95.50370788574219 L126.76813507080078,95.23594665527344 L125.70199584960938,94.95175170898438 L125.15565490722656,94.72941589355469 M149.3893585205078,79.75 L149.40127563476562,80.20877075195312 L149.40216064453125,81.11617279052734 L149.39161682128906,82.48668670654297 L149.34629821777344,84.20307922363281 L149.2275848388672,86.17081451416016 L149.08807373046875,88.31748962402344 L148.9868621826172,90.50762939453125 L148.98593139648438,92.55632781982422 L149.17506408691406,94.2381362915039 L149.6356964111328,95.35612487792969 L150.4144287109375,95.8151626586914 L151.47967529296875,95.58844757080078 L152.75567626953125,94.73248291015625 L154.10926818847656,93.4007568359375 L155.4217071533203,91.78913116455078 L156.60232543945312,90.14253997802734 L157.5493621826172,88.68761444091797 L158.20748901367188,87.6120834350586 L158.5593719482422,86.96490478515625 L158.61233520507812,86.8162612915039 L158.4493865966797,87.19293975830078 L158.14773559570312,88.09149169921875 L157.78778076171875,89.42942810058594 L157.45431518554688,91.07450103759766 L157.24378967285156,92.7171401977539 L157.20875549316406,94.09617614746094 L157.28472900390625,95.00001525878906 L157.39547729492188,95.42959594726562 M158.15069580078125,81.67646026611328 L158.1445770263672,81.51734161376953 L158.18087768554688,81.42267608642578 L158.2486114501953,81.4111099243164 L158.33897399902344,81.49808502197266 M163.17886352539062,86.10600280761719 L163.2592315673828,86.1766357421875 L163.36819458007812,86.46190643310547 L163.4530029296875,87.04414367675781 L163.48216247558594,87.96964263916016 L163.4366912841797,89.17593383789062 L163.34849548339844,90.54592895507812 L163.28677368164062,91.91485595703125 L163.2890625,93.11210632324219 L163.37701416015625,93.99467468261719 L163.5960235595703,94.47885131835938 L163.93824768066406,94.48480224609375 L164.4209442138672,93.98992156982422 L165.0519256591797,93.0129623413086 L165.86436462402344,91.65628051757812 L166.81866455078125,90.12650299072266 L167.8815460205078,88.6450424194336 L168.99981689453125,87.39312744140625 L170.11447143554688,86.48036193847656 L171.1389617919922,85.95092010498047 L172.04522705078125,85.83979034423828 L172.7734375,86.165283203125 L173.29930114746094,86.9262924194336 L173.6192169189453,88.07048797607422 L173.7932891845703,89.49151611328125 L173.86752319335938,91.02690887451172 L173.9147491455078,92.5022201538086 L173.97389221191406,93.62574768066406 L174.04608154296875,94.2934341430664 M177.41851806640625,92.44091796875 L177.8455047607422,92.20702362060547 L178.59347534179688,91.72917175292969 L179.5836639404297,90.97946166992188 L180.66986083984375,90.01819610595703 L181.6396942138672,88.89046478271484 L182.43209838867188,87.73794555664062 L182.912353515625,86.67542266845703 L183.05616760253906,85.81369018554688 L182.8857421875,85.23766326904297 L182.39459228515625,85.02247619628906 L181.60733032226562,85.202392578125 L180.6254425048828,85.869873046875 L179.54214477539062,86.97947692871094 L178.57611083984375,88.42628479003906 L178.0019073486328,90.06089782714844 L177.89566040039062,91.66525268554688 L178.36318969726562,93.04539489746094 L179.60275268554688,94.05347442626953 L181.0261993408203,94.62953186035156 L182.1913604736328,94.84264373779297 M193.27503967285156,86.61683654785156 L192.89645385742188,86.21139526367188 L192.17984008789062,85.77336883544922 L191.13531494140625,85.50460052490234 L189.91567993164062,85.60333251953125 L188.66372680664062,85.97943115234375 L187.63287353515625,86.58908081054688 L187.03160095214844,87.40797424316406 L186.97767639160156,88.392822265625 L187.5240020751953,89.51494598388672 L188.58889770507812,90.70906066894531 L190.0030975341797,91.89596557617188 L191.56436157226562,93.0306625366211 L193.0144805908203,94.08731079101562 L194.1240234375,95.00106048583984 L194.76600646972656,95.76934814453125 L194.8415069580078,96.37384796142578 L194.3860321044922,96.79632568359375 L193.4412384033203,97.04222869873047 L192.0612335205078,97.09432983398438 L190.47415161132812,96.9345703125 L188.91934204101562,96.61177825927734 L187.52188110351562,96.09432220458984 L186.5491485595703,95.58480834960938 L186.00279235839844,95.21660614013672 " fill="none" stroke="black" stroke-linecap="round" stroke-width="1.0" /><path d="M0,0 M34.576534271240234,114.952880859375 L34.62324905395508,114.89661407470703 L34.750736236572266,114.80892944335938 L34.921932220458984,114.6966781616211 L35.14453125,114.54398345947266 L35.341651916503906,114.32303619384766 L35.49781036376953,114.12637329101562 L35.61040115356445,113.880615234375 L35.70571517944336,113.55653381347656 L35.765533447265625,113.12126922607422 L35.840370178222656,112.57608032226562 L35.909156799316406,111.98007202148438 L35.90038299560547,111.39833068847656 L35.83935546875,110.87847900390625 L35.64652633666992,110.41911315917969 L35.34505081176758,110.04994201660156 L34.93243408203125,109.8355712890625 L34.44843292236328,109.80180358886719 L33.87415313720703,109.96162414550781 L33.22601318359375,110.3857192993164 L32.48778533935547,111.08786010742188 L31.703962326049805,112.0721664428711 L30.926742553710938,113.30686950683594 L30.28719711303711,114.74883270263672 L29.90476417541504,116.30326080322266 L29.866621017456055,117.84664916992188 L30.231416702270508,119.28227233886719 L30.99707794189453,120.47347259521484 L32.13034439086914,121.29684448242188 L33.601524353027344,121.7086181640625 L35.45496368408203,121.51506042480469 L37.17718505859375,121.0044174194336 L38.42137145996094,120.46513366699219 M42.82276916503906,110.45325469970703 L42.84247589111328,110.49048614501953 L42.91154479980469,110.7540283203125 L43.01786804199219,111.34891510009766 L43.191307067871094,112.37960815429688 L43.36517333984375,113.78739166259766 L43.5477294921875,115.42353820800781 L43.74424743652344,117.09097290039062 L43.98582458496094,118.64022827148438 L44.26239776611328,119.86148071289062 L44.60980987548828,120.68913269042969 L44.93334197998047,121.0821762084961 L45.298072814941406,120.98958587646484 L45.73088836669922,120.34627532958984 L46.33551788330078,119.1857681274414 L47.09148406982422,117.58609008789062 L47.96495819091797,115.76946258544922 L48.82408905029297,113.99693298339844 L49.640159606933594,112.43373107910156 L50.25074005126953,111.31305694580078 L50.63836669921875,110.68041229248047 M51.82703399658203,118.64608764648438 L52.315948486328125,118.60542297363281 L53.138641357421875,118.3301773071289 L54.218589782714844,117.73985290527344 L55.35975646972656,116.80992126464844 L56.38496398925781,115.62801361083984 L57.216758728027344,114.31602478027344 L57.801910400390625,113.02603149414062 L58.05701446533203,111.80928802490234 L57.994293212890625,110.8007583618164 L57.59868621826172,110.06742095947266 L56.85603332519531,109.71256256103516 L55.80548095703125,109.83454895019531 L54.61309814453125,110.46881866455078 L53.40692901611328,111.57383728027344 L52.445220947265625,113.08322143554688 L51.87510681152344,114.82327270507812 L51.771385192871094,116.6276626586914 L52.200233459472656,118.30915069580078 L53.163536071777344,119.68245697021484 L54.538291931152344,120.58580780029297 L56.25590515136719,120.92525482177734 L58.216285705566406,120.53813171386719 L59.89201354980469,119.8128890991211 L61.02849578857422,119.10301208496094 M62.65730285644531,111.03875732421875 L62.677024841308594,111.30701446533203 L62.67799377441406,111.94247436523438 L62.6651611328125,113.0008773803711 L62.64861297607422,114.42127990722656 L62.589881896972656,116.0077896118164 L62.585662841796875,117.56571960449219 L62.65789031982422,118.89046478271484 L62.75157928466797,119.7869873046875 L62.91413879394531,120.21897888183594 L63.163719177246094,120.12760925292969 L63.4893798828125,119.45940399169922 L63.958465576171875,118.28977966308594 L64.61750030517578,116.73983001708984 L65.39373016357422,114.99890899658203 L66.2991943359375,113.38512420654297 L67.2619400024414,112.00904083251953 L68.27508544921875,110.96783447265625 L69.27941131591797,110.3248519897461 L70.28817749023438,110.13760375976562 L71.22328186035156,110.41079711914062 L72.03533935546875,111.17322540283203 L72.65384674072266,112.3551025390625 L73.08910369873047,113.86860656738281 L73.34098815917969,115.55155181884766 L73.49110412597656,117.2411880493164 L73.62332153320312,118.79888916015625 L73.77642059326172,120.11592864990234 L73.96672821044922,121.09194946289062 L74.18170166015625,121.67398834228516 L74.48171997070312,121.73809814453125 L74.77039337158203,121.49996948242188 L75.01199340820312,121.18116760253906 M87.55213165283203,117.50169372558594 L87.9756851196289,117.30670928955078 L88.76974487304688,116.90401458740234 L89.87200927734375,116.25047302246094 L91.07971954345703,115.3576889038086 L92.23046875,114.28450012207031 L93.16529083251953,113.0882568359375 L93.81745147705078,111.91854858398438 L94.1378173828125,110.8514404296875 L94.15196228027344,109.98117065429688 L93.82698822021484,109.36254119873047 L93.17339324951172,109.0960464477539 L92.17206573486328,109.26242065429688 L90.9404525756836,109.95101928710938 L89.60883331298828,111.14354705810547 L88.4281005859375,112.73020935058594 L87.58345794677734,114.5658950805664 L87.25992584228516,116.44850158691406 L87.5256118774414,118.22875213623047 L88.41027069091797,119.7475814819336 L89.81230926513672,120.84724426269531 L91.60071563720703,121.40023040771484 L93.7253646850586,121.2451400756836 L95.61558532714844,120.69287109375 L96.92118835449219,120.09733581542969 M99.27467346191406,109.88053894042969 L99.20248413085938,109.96267700195312 L99.18510437011719,110.34217071533203 L99.29456329345703,111.14602661132812 L99.55388641357422,112.40589141845703 L99.8945083618164,114.017333984375 L100.29444885253906,115.79586029052734 L100.75980377197266,117.57676696777344 L101.26651763916016,119.1319808959961 L101.82581329345703,120.29049682617188 L102.34085083007812,120.97002410888672 L102.81361389160156,121.13450622558594 L103.26042938232422,120.7145004272461 L103.76165008544922,119.70956420898438 L104.31404113769531,118.14875793457031 L104.93540954589844,116.23580932617188 L105.53844451904297,114.25932312011719 L106.05632781982422,112.42985534667969 L106.5057601928711,110.87081146240234 L106.84025573730469,109.70265197753906 L107.03939819335938,108.99000549316406 L107.16632843017578,108.75 L107.30152893066406,109.08877563476562 L107.40680694580078,109.64861297607422 L107.53165435791016,110.16976165771484 M108.71852111816406,117.90275573730469 L109.09771728515625,117.78141021728516 L109.78233337402344,117.4493179321289 L110.76128387451172,116.85301971435547 L111.85209655761719,115.9774169921875 L112.9200210571289,114.88084411621094 L113.90470123291016,113.6560287475586 L114.6751480102539,112.41304016113281 L115.15775299072266,111.24186706542969 L115.34848022460938,110.24787902832031 L115.18321228027344,109.4886474609375 L114.69302368164062,109.07559204101562 L113.92729949951172,109.1194839477539 L112.93904113769531,109.72882843017578 L111.8414535522461,110.90095520019531 L110.80510711669922,112.57195281982422 L110.02549743652344,114.52327728271484 L109.67247009277344,116.51887512207031 L109.87036895751953,118.36280822753906 L110.63658905029297,119.87008666992188 L111.87007141113281,120.87248229980469 L113.44434356689453,121.29161071777344 L115.3479995727539,120.90837860107422 L117.04875946044922,120.13484191894531 L118.24560546875,119.3781509399414 M120.99344635009766,110.20513916015625 L120.85205078125,110.02474212646484 L120.7266616821289,110.05738067626953 L120.61653900146484,110.5050048828125 L120.54488372802734,111.5280532836914 L120.42311096191406,113.01704406738281 L120.25800323486328,114.7807846069336 L120.11006927490234,116.51480865478516 L120.08819580078125,118.05107116699219 L120.16068267822266,119.13717651367188 L120.32971954345703,119.74056243896484 L120.58499908447266,119.81773376464844 L120.92790985107422,119.32157135009766 L121.42630767822266,118.30882263183594 L122.12429809570312,116.87142944335938 L123.00252532958984,115.16703033447266 L124.01134490966797,113.47354888916016 L125.1016845703125,111.9848403930664 L126.21392059326172,110.81424713134766 L127.31107330322266,110.09271240234375 L128.29611206054688,109.85819244384766 L129.18099975585938,110.172119140625 L129.8629608154297,110.99974060058594 L130.3553009033203,112.29212951660156 L130.64500427246094,113.94802856445312 L130.7834930419922,115.79353332519531 L130.8201446533203,117.62342834472656 L130.8570556640625,119.27071380615234 L130.93283081054688,120.5535888671875 L131.18075561523438,121.28173065185547 L131.4824676513672,121.55140686035156 L131.7493133544922,121.5220947265625 M144.0357208251953,118.61695098876953 L144.2702178955078,118.62736511230469 L144.7589111328125,118.53125 L145.55499267578125,118.25261688232422 L146.6141815185547,117.72603607177734 L147.7890625,116.92877960205078 L149.01148986816406,115.9097671508789 L150.14675903320312,114.7374267578125 L151.11314392089844,113.45567321777344 L151.80075073242188,112.15617370605469 L152.155517578125,110.93766784667969 L152.1136016845703,109.89775848388672 L151.6629180908203,109.13654327392578 L150.84437561035156,108.77491760253906 L149.73934936523438,108.8752670288086 L148.42349243164062,109.5096435546875 L147.07412719726562,110.66899871826172 L145.87632751464844,112.30924224853516 L145.0254669189453,114.25987243652344 L144.67103576660156,116.34498596191406 L144.8798828125,118.32546997070312 L145.6648406982422,119.99763488769531 L147.18650817871094,121.11122131347656 L148.82713317871094,121.68091583251953 L150.13951110839844,121.8308334350586 M157.19549560546875,110.95718383789062 L157.19049072265625,110.91822814941406 L157.2052764892578,111.0468978881836 L157.21072387695312,111.52246856689453 L157.21292114257812,112.4913101196289 L157.17031860351562,113.93641662597656 L157.14035034179688,115.68061065673828 L157.20562744140625,117.4944839477539 L157.45330810546875,119.16031646728516 L157.8462677001953,120.4712142944336 L158.33079528808594,121.3260269165039 L158.88011169433594,121.6694564819336 L159.47378540039062,121.45840454101562 L160.12461853027344,120.65139770507812 L160.88340759277344,119.29891204833984 L161.68191528320312,117.52818298339844 L162.4791259765625,115.5842514038086 L163.2620849609375,113.68968963623047 L164.02992248535156,111.96070861816406 L164.6522216796875,110.66496276855469 L165.06198120117188,109.88130950927734 M165.83799743652344,118.772705078125 L166.253662109375,118.68456268310547 L167.01712036132812,118.35783386230469 L168.0533905029297,117.74775695800781 L169.19053649902344,116.8437728881836 L170.2631378173828,115.72111511230469 L171.20509338378906,114.48013305664062 L171.8974151611328,113.2103042602539 L172.3158416748047,112.01876831054688 L172.3599090576172,110.99654388427734 L172.04994201660156,110.2633285522461 L171.3876953125,109.89276123046875 L170.45269775390625,110.01931762695312 L169.3092041015625,110.70854187011719 L168.12655639648438,111.94790649414062 L167.0916290283203,113.58658599853516 L166.45071411132812,115.47735595703125 L166.3548126220703,117.37908172607422 L167.02561950683594,119.1257095336914 L168.0151824951172,120.4148178100586 L168.9107666015625,121.1520767211914 M177.9548797607422,110.71984100341797 L177.95574951171875,110.78056335449219 L177.94793701171875,111.13288116455078 L177.88743591308594,111.9114990234375 L177.7352294921875,113.15908813476562 L177.4928741455078,114.76603698730469 L177.22003173828125,116.50105285644531 L176.97763061523438,118.14429473876953 L176.83358764648438,119.50555419921875 L176.79364013671875,120.44749450683594 L176.83538818359375,120.9371337890625 L176.97940063476562,120.89479064941406 L177.2038116455078,120.32067108154297 L177.54605102539062,119.24180603027344 L178.04336547851562,117.77996826171875 L178.7079620361328,116.13651275634766 L179.549560546875,114.539794921875 L180.60513305664062,113.10267639160156 L181.83462524414062,111.93231201171875 L183.22335815429688,111.13778686523438 L184.67483520507812,110.77799987792969 L186.0832977294922,110.89913940429688 L187.32064819335938,111.50971221923828 L188.30609130859375,112.5675048828125 L188.93638610839844,113.99617767333984 L189.24166870117188,115.6883773803711 L189.25990295410156,117.60780334472656 L189.14926147460938,119.25553131103516 L189.03228759765625,120.368896484375 " fill="none" stroke="black" stroke-linecap="round" stroke-width="1.0" /><path d="M0,0 M28.475109100341797,140.1156463623047 L28.46619987487793,140.3905029296875 L28.45960235595703,141.06121826171875 L28.44662094116211,142.16555786132812 L28.403003692626953,143.60479736328125 L28.252077102661133,145.20237731933594 L28.02977752685547,146.7858123779297 L27.83146858215332,148.10487365722656 L27.69331932067871,149.02976989746094 L27.65291976928711,149.49618530273438 L27.693235397338867,149.38485717773438 L27.855876922607422,148.69845581054688 L28.157472610473633,147.44534301757812 L28.61819076538086,145.71511840820312 L29.261377334594727,143.77401733398438 L30.04109764099121,141.91140747070312 L30.924821853637695,140.31265258789062 L31.88789176940918,139.0651397705078 L32.91069412231445,138.24337768554688 L33.92780303955078,137.92376708984375 L34.915733337402344,138.1602783203125 L35.807777404785156,138.9661865234375 L36.52784729003906,140.33758544921875 L36.984317779541016,142.0858917236328 L37.205650329589844,144.05514526367188 L37.22919464111328,145.95960998535156 L37.17098617553711,147.50115966796875 L37.08897399902344,148.49093627929688 L37.05281448364258,148.9156494140625 L37.13351821899414,148.68548583984375 L37.320899963378906,147.81784057617188 L37.6924934387207,146.4192352294922 L38.29792404174805,144.64022827148438 L39.12964630126953,142.72711181640625 L40.19731521606445,140.9964141845703 L41.43651580810547,139.571044921875 L42.716461181640625,138.54635620117188 L43.98857498168945,138.04190063476562 L45.10649490356445,138.1113739013672 L46.01456069946289,138.7727508544922 L46.66095733642578,139.99317932128906 L46.98568344116211,141.6365509033203 L47.04444885253906,143.5483856201172 L46.895687103271484,145.4807891845703 L46.65074157714844,147.2209014892578 L46.47665786743164,148.56016540527344 L46.61118698120117,149.3110809326172 L46.926414489746094,149.55897521972656 L47.29446029663086,149.5200653076172 M57.191078186035156,141.14285278320312 L56.923011779785156,140.7869873046875 L56.4677848815918,140.331298828125 L55.79459762573242,139.92308044433594 L54.9250373840332,139.78514099121094 L53.865638732910156,139.99429321289062 L52.64897155761719,140.60012817382812 L51.442649841308594,141.6425323486328 L50.44293212890625,143.06411743164062 L49.839847564697266,144.72882080078125 L49.75481414794922,146.4150848388672 L50.24266052246094,147.88226318359375 L51.241905212402344,148.94607543945312 L52.639984130859375,149.48495483398438 L54.20808410644531,149.41517639160156 L55.80912399291992,148.80043029785156 L57.259376525878906,147.70518493652344 L58.39954376220703,146.27415466308594 L59.14496994018555,144.68719482421875 L59.42866134643555,143.11814880371094 L59.21259689331055,141.7025909423828 L58.653350830078125,140.5801544189453 L57.85972595214844,139.8335723876953 L57.12422180175781,139.45530700683594 L56.62834167480469,139.33428955078125 M63.40707015991211,139.8187713623047 L63.33491134643555,139.7581329345703 L63.269290924072266,139.8880157470703 L63.21463394165039,140.36093139648438 L63.212398529052734,141.2973175048828 L63.19405746459961,142.6402130126953 L63.15102005004883,144.2611083984375 L63.043121337890625,145.90615844726562 L62.92393112182617,147.40231323242188 L62.828285217285156,148.52700805664062 L62.82609558105469,149.22604370117188 L62.86078643798828,149.46888732910156 L62.920188903808594,149.21522521972656 L62.98466873168945,148.43531799316406 L63.064598083496094,147.16932678222656 L63.25164794921875,145.54562377929688 L63.628116607666016,143.8011016845703 L64.19717407226562,142.12991333007812 L64.99858093261719,140.62301635742188 L66.0048828125,139.3802032470703 L67.17456817626953,138.4998779296875 L68.436767578125,138.03289794921875 L69.75889587402344,138.05918884277344 L70.84750366210938,138.3438262939453 L71.56808471679688,138.66014099121094 M71.8931884765625,146.13125610351562 L72.30410766601562,146.0581512451172 L73.08137512207031,145.76747131347656 L74.20294189453125,145.21034240722656 L75.48854064941406,144.3699493408203 L76.73471069335938,143.3223114013672 L77.80172729492188,142.19569396972656 L78.56611633300781,141.08453369140625 L78.96748352050781,140.08847045898438 L78.97808837890625,139.310791015625 L78.59165954589844,138.8153076171875 L77.80160522460938,138.7119598388672 L76.63581848144531,139.09588623046875 L75.19418334960938,139.97769165039062 L73.76242065429688,141.33541870117188 L72.61500549316406,143.0081329345703 L72.01104736328125,144.8074493408203 L72.08953857421875,146.540283203125 L72.87809753417969,148.0549774169922 L74.29261779785156,149.1797637939453 L76.25546264648438,149.8590545654297 L78.59370422363281,150.0400390625 L81.30149841308594,149.64453125 L83.68368530273438,149.00123596191406 L85.33299255371094,148.41244506835938 M93.54367065429688,139.295166015625 L93.546142578125,139.81605529785156 L93.51701354980469,140.75732421875 L93.47767639160156,142.1082000732422 L93.38575744628906,143.66087341308594 L93.25711059570312,145.2967071533203 L93.09359741210938,146.85887145996094 L92.95458984375,148.17652893066406 L92.83457946777344,149.07496643066406 L92.77947998046875,149.52951049804688 L92.77645874023438,149.43719482421875 L92.86367797851562,148.77224731445312 L93.05873107910156,147.58023071289062 L93.46217346191406,146.01211547851562 L94.01771545410156,144.20921325683594 L94.72108459472656,142.4300994873047 L95.53923034667969,140.78964233398438 L96.44996643066406,139.4149627685547 L97.39421081542969,138.36270141601562 L98.38217163085938,137.80368041992188 L99.31681823730469,137.75 L100.16313171386719,138.2568817138672 L100.82423400878906,139.28054809570312 L101.27980041503906,140.76199340820312 L101.51010131835938,142.5267333984375 L101.5469970703125,144.36509704589844 L101.46440124511719,146.02078247070312 L101.35362243652344,147.29019165039062 L101.26899719238281,148.07876586914062 L101.23577880859375,148.397216796875 L101.29945373535156,148.2117919921875 L101.45796203613281,147.47703552246094 L101.76553344726562,146.2765655517578 L102.27030944824219,144.7283935546875 L103.01460266113281,143.05044555664062 L103.9488525390625,141.49122619628906 L105.04559326171875,140.15170288085938 L106.23887634277344,139.13804626464844 L107.42613220214844,138.57261657714844 L108.51255798339844,138.5178680419922 L109.42218017578125,138.98690795898438 L110.11648559570312,139.9664764404297 L110.56016540527344,141.3591766357422 L110.73884582519531,143.0294952392578 L110.6810302734375,144.81387329101562 L110.48698425292969,146.49253845214844 L110.30461120605469,147.8759765625 L110.22676086425781,148.80267333984375 L110.24923706054688,149.27430725097656 M120.07197570800781,141.0528106689453 L119.90892028808594,140.67991638183594 L119.57815551757812,140.2110595703125 L119.01667785644531,139.8135223388672 L118.21853637695312,139.75050354003906 L117.15232849121094,140.07859802246094 L115.92988586425781,140.85009765625 L114.7293701171875,142.0442352294922 L113.74162292480469,143.55162048339844 L113.15750122070312,145.19093322753906 L113.11674499511719,146.78268432617188 L113.65084838867188,148.1116485595703 L114.67913818359375,149.020263671875 L116.07437133789062,149.37442016601562 L117.660888671875,149.1474151611328 L119.28038024902344,148.36767578125 L120.74067687988281,147.1374053955078 L121.82640075683594,145.5866241455078 L122.42819213867188,143.94346618652344 L122.4833984375,142.37461853027344 L122.09121704101562,141.06094360351562 L121.42068481445312,140.0913543701172 L120.65618896484375,139.5094451904297 L120.0146484375,139.244873046875 L119.62185668945312,139.18875122070312 M127.26914978027344,140.07577514648438 L127.20417785644531,140.23995971679688 L127.09136962890625,140.68356323242188 L126.95402526855469,141.49131774902344 L126.81208801269531,142.6412811279297 L126.66157531738281,144.04605102539062 L126.5108642578125,145.5636749267578 L126.35208129882812,147.0410919189453 L126.23063659667969,148.25880432128906 L126.18284606933594,149.09970092773438 L126.18507385253906,149.48631286621094 L126.24015808105469,149.3368682861328 L126.32023620605469,148.6313018798828 L126.41989135742188,147.4372100830078 L126.57798767089844,145.8677520751953 L126.80659484863281,144.16758728027344 L127.138671875,142.58084106445312 L127.60026550292969,141.18997192382812 L128.17430114746094,140.06076049804688 L128.88534545898438,139.27125549316406 L129.72476196289062,138.84922790527344 L130.65426635742188,138.7772979736328 L131.7755584716797,139.10684204101562 L132.7941131591797,139.5663604736328 L133.5197296142578,139.96530151367188 M134.75450134277344,146.2047576904297 L135.08717346191406,146.19073486328125 L135.7711944580078,146.03457641601562 L136.79930114746094,145.66493225097656 L138.00897216796875,145.062255859375 L139.2011260986328,144.2742462158203 L140.27230834960938,143.35067749023438 L141.13531494140625,142.3911895751953 L141.73023986816406,141.44232177734375 L141.98297119140625,140.54600524902344 L141.8665771484375,139.7823944091797 L141.3466033935547,139.22677612304688 L140.453369140625,138.9817352294922 L139.2401123046875,139.17271423339844 L137.84864807128906,139.8406219482422 L136.4746856689453,140.95285034179688 L135.366455078125,142.43038940429688 L134.69456481933594,144.12440490722656 L134.56439208984375,145.9063720703125 L135.0634002685547,147.59576416015625 L136.20848083496094,149.02981567382812 L137.9583282470703,150.05853271484375 L140.42347717285156,150.51055908203125 L142.80738830566406,150.53326416015625 L144.54869079589844,150.35720825195312 M155.18734741210938,140.70559692382812 L155.29721069335938,140.92684936523438 L155.44532775878906,141.4581298828125 L155.60276794433594,142.35760498046875 L155.70498657226562,143.58164978027344 L155.7132110595703,145.0319366455078 L155.6470947265625,146.5526580810547 L155.55081176757812,147.97389221191406 L155.4566192626953,149.07460021972656 L155.39944458007812,149.7703857421875 L155.44818115234375,149.96510314941406 L155.5968780517578,149.57781982421875 L155.86866760253906,148.64132690429688 L156.26419067382812,147.2206573486328 L156.81277465820312,145.47695922851562 L157.48272705078125,143.67486572265625 L158.28317260742188,141.96214294433594 L159.15711975097656,140.4838409423828 L160.08583068847656,139.385009765625 L160.9674835205078,138.7555694580078 L161.80474853515625,138.69615173339844 L162.535400390625,139.22962951660156 L163.1119842529297,140.27528381347656 L163.481689453125,141.75369262695312 L163.67076110839844,143.4662628173828 L163.68287658691406,145.1944122314453 L163.61456298828125,146.710693359375 L163.51702880859375,147.83155822753906 L163.4396514892578,148.4821319580078 L163.38644409179688,148.6374969482422 L163.41029357910156,148.23033142089844 L163.59385681152344,147.3278350830078 L163.9668426513672,146.0055694580078 L164.55076599121094,144.39369201660156 L165.34974670410156,142.72933959960938 L166.29991149902344,141.18113708496094 L167.384033203125,139.88107299804688 L168.4941864013672,138.94825744628906 L169.47647094726562,138.44940185546875 L170.3032684326172,138.43869018554688 L170.9400177001953,138.9619598388672 L171.36215209960938,139.98678588867188 L171.58773803710938,141.44981384277344 L171.62171936035156,143.17684936523438 L171.474609375,144.95729064941406 L171.2504119873047,146.60824584960938 L171.15139770507812,147.95394897460938 L171.18031311035156,148.8531036376953 L171.28262329101562,149.31349182128906 M181.8322296142578,140.9567413330078 L181.68264770507812,140.49176025390625 L181.35870361328125,139.92100524902344 L180.8068389892578,139.4158172607422 L180.01943969726562,139.24456787109375 L178.9763946533203,139.397705078125 L177.79762268066406,139.9601593017578 L176.5779571533203,140.91680908203125 L175.5128173828125,142.23594665527344 L174.7537384033203,143.7942352294922 L174.43963623046875,145.4386749267578 L174.66470336914062,146.9541473388672 L175.39576721191406,148.18075561523438 L176.54171752929688,148.95370483398438 L177.98423767089844,149.1907196044922 L179.54177856445312,148.86415100097656 L181.05044555664062,148.0247802734375 L182.36778259277344,146.78932189941406 L183.31069946289062,145.32870483398438 L183.81878662109375,143.80325317382812 L183.8874969482422,142.3724822998047 L183.58428955078125,141.1145477294922 L183.0007781982422,140.13816833496094 L182.41189575195312,139.5285186767578 L181.97584533691406,139.24813842773438 M188.37191772460938,140.74562072753906 L188.40943908691406,140.92196655273438 L188.48191833496094,141.36781311035156 L188.5310516357422,142.1376190185547 L188.49354553222656,143.2243194580078 L188.30770874023438,144.5253448486328 L188.04273986816406,145.94073486328125 L187.75048828125,147.28787231445312 L187.58059692382812,148.3496551513672 L187.5224151611328,149.0216064453125 L187.54605102539062,149.21920776367188 L187.6411590576172,148.86077880859375 L187.7848358154297,147.97364807128906 L187.99798583984375,146.60838317871094 L188.362060546875,144.90565490722656 L188.8516845703125,143.12448120117188 L189.46681213378906,141.47515869140625 L190.21914672851562,140.05538940429688 L191.0692901611328,138.9413604736328 L192.04920959472656,138.1825408935547 L193.16175842285156,137.8087921142578 L194.41705322265625,137.81744384765625 L195.85890197753906,138.27191162109375 L197.134765625,138.8624725341797 L198.01890563964844,139.36692810058594 M197.3307342529297,146.18338012695312 L197.82237243652344,146.14669799804688 L198.74441528320312,145.9223175048828 L200.06729125976562,145.48678588867188 L201.56834411621094,144.81822204589844 L203.04273986816406,144.0152587890625 L204.3236846923828,143.1357421875 L205.2882080078125,142.25146484375 L205.8709259033203,141.3833465576172 L206.02691650390625,140.62045288085938 L205.7029571533203,140.01980590820312 L204.9037322998047,139.69320678710938 L203.6378936767578,139.75570678710938 L202.0257568359375,140.24960327148438 L200.31512451171875,141.14974975585938 L198.7884979248047,142.40159606933594 L197.6990966796875,143.90280151367188 L197.25379943847656,145.52114868164062 L197.53346252441406,147.1480712890625 L198.5888671875,148.60092163085938 L200.33502197265625,149.71896362304688 L202.61837768554688,150.40582275390625 L205.3938751220703,150.55889892578125 L207.8798065185547,150.37139892578125 L209.6058349609375,150.08856201171875 " fill="none" stroke="black" stroke-linecap="round" stroke-width="1.0" /></svg>